<?xml version="1.0" standalone="no"?>
<!DOCTYPE svg PUBLIC "-//W3C//DTD SVG 20010904//EN"
 "http://www.w3.org/TR/2001/REC-SVG-20010904/DTD/svg10.dtd">
<svg version="1.0" xmlns="http://www.w3.org/2000/svg"
 width="490.000000pt" height="490.000000pt" viewBox="0 0 490.000000 490.000000"
 preserveAspectRatio="xMidYMid meet">
<metadata>
Created by potrace 1.11, written by Peter Selinger 2001-2013
</metadata>
<g transform="translate(0.000000,490.000000) scale(0.100000,-0.100000)"
fill="#000000" stroke="none">
<path d="M2320 4872 c-30 -10 -129 -61 -220 -114 -91 -53 -181 -105 -200 -115
-20 -11 -92 -53 -160 -93 -69 -40 -143 -83 -165 -95 -22 -12 -85 -48 -140 -80
-88 -51 -311 -180 -475 -274 -30 -17 -62 -36 -70 -41 -8 -6 -21 -13 -29 -17
-8 -4 -76 -42 -150 -86 -75 -44 -162 -94 -195 -111 -119 -63 -213 -186 -232
-303 -10 -57 -10 -2088 -1 -2163 5 -36 21 -92 37 -125 50 -104 119 -163 338
-287 62 -35 167 -95 255 -147 49 -28 93 -51 98 -51 5 0 9 -4 9 -10 0 -5 4 -10
9 -10 5 0 260 -145 568 -323 704 -408 678 -394 743 -410 70 -19 170 -15 237 7
29 10 92 40 140 68 387 223 491 283 513 295 14 8 39 22 55 32 42 26 153 90
200 116 22 12 123 71 225 130 102 59 275 159 385 223 332 191 368 214 414 261
56 57 99 150 109 232 4 35 7 532 6 1104 l-1 1040 -22 64 c-26 76 -66 137 -120
183 -30 25 -385 238 -526 314 -11 6 -162 93 -335 193 -173 101 -405 235 -515
299 -110 63 -252 145 -315 182 -205 119 -224 126 -336 128 -52 1 -98 -5 -134
-16z m224 -943 c34 -7 90 -25 125 -40 76 -34 76 -34 104 -9 36 35 104 50 155
35 53 -16 110 -59 123 -92 15 -39 11 -98 -12 -163 l-21 -60 27 -32 c33 -39
118 -206 138 -273 32 -103 55 -154 95 -206 44 -58 81 -133 82 -161 0 -20 2
-21 90 -19 57 2 68 -1 92 -23 24 -23 26 -29 16 -63 -17 -62 -35 -76 -90 -69
-54 7 -57 2 -38 -63 19 -69 32 -242 31 -436 0 -109 -3 -213 -6 -230 -2 -16 -7
-54 -10 -82 -6 -61 -32 -194 -45 -229 -5 -13 -7 -25 -5 -25 20 -5 28 -7 48 -8
13 0 40 -18 60 -38 44 -43 48 -84 14 -124 -37 -44 -61 -45 -111 -5 -23 20 -49
36 -57 36 -8 0 -41 -25 -74 -56 -146 -135 -426 -282 -615 -324 -30 -6 -69 -16
-87 -21 -17 -5 -63 -10 -102 -11 -65 -1 -73 -4 -100 -32 -16 -17 -39 -53 -51
-81 -12 -27 -27 -53 -33 -57 -21 -13 -102 -9 -124 7 -34 24 -33 50 3 120 19
36 34 69 34 75 0 5 -15 16 -34 25 -19 9 -62 46 -97 82 -54 56 -66 64 -90 59
-18 -3 -32 1 -43 13 -20 22 -20 35 -1 65 13 20 14 31 4 72 -7 27 -13 129 -14
229 -3 194 -8 253 -29 330 -8 28 -17 69 -20 93 -13 98 -52 178 -192 388 -30
45 -54 86 -54 92 0 5 -20 53 -45 106 -25 53 -50 117 -56 142 -14 53 -34 69
-109 87 -63 14 -93 48 -108 119 -23 112 28 194 149 238 29 10 39 21 48 49 14
47 88 144 144 191 25 20 52 44 61 52 9 9 44 34 78 54 35 21 106 67 158 102
150 100 246 140 425 174 45 9 112 8 169 -3z"/>
</g>
</svg>
