<svg
  xmlns="http://www.w3.org/2000/svg"
  viewBox="0 0 434.59 489.31">
  <path
    style="fill: white;"
    transform="translate(-89.72 -152.69)"
    d="M312,642H301c-5-1.8-10.3-2.92-14.81-5.51Q198.31,586,110.7,535c-13.56-7.92-20.85-20.52-20.88-36.45q-0.2-101.72,0-203.44C89.86,279.2,97.16,267,111,259q86.69-50.06,173.49-100c14.76-8.47,29.75-8.54,44.62.06q86,49.73,172.08,99.4c15.65,9,23.18,22.07,23.15,40.08q-0.19,99,0,197.94c0,17.61-7.42,30.52-22.7,39.32q-78.76,45.34-157.38,90.91C333.91,632.72,324,639.55,312,642Zm91.95-276.28c2.26,0.52,3.82,1,5.42,1.23,3.5,0.46,6.19-.62,7.55-4.18,3.07-8,.13-12.09-8.56-11.81a42,42,0,0,0-6,.37c-2.66.47-3.56-.52-4.61-3-2.08-5-5-9.66-7.55-14.44-2.13-3.91-4.62-7.65-6.43-11.69-4.66-10.43-8-21.62-13.87-31.27-4.16-6.82-6-12.22-2.82-19.72,2.07-4.92,2.18-10.67-2.38-14.83-5.48-5-11.62-8.42-19.46-5.65-2.4.85-19.13,1-21.58,0.24-19.51-6.43-37.47-1.06-54.57,8-10.25,5.41-19.95,11.94-29.58,18.44-10.52,7.1-20.41,15.15-25.89,27a13.51,13.51,0,0,1-8.37,7.8c-12.22,4.58-16.56,17.92-9.46,29a12.35,12.35,0,0,0,6.73,4.84c7.11,1.81,11.08,5.15,13.74,12.77,4.16,11.94,10.68,23.09,16.61,34.36,4.71,8.95,11.88,17,14.64,26.47,4.24,14.54,7.51,29.63,7.08,45.1-0.28,10.08-1.9,20.22,1.53,30.18,0.57,1.66-.4,3.87-0.71,5.82s-1.54,4.39-.77,5.41c1,1.33,3.62,1.38,5.49,2.12,1.72,0.67,3.67,1.18,5,2.35,5.42,4.78,10.64,9.79,16.68,15.41-1.33,2.5-3.33,6.07-5.15,9.71-2.35,4.69-1.22,8,3.18,9.72,6.86,2.74,11.54.77,14.12-6a16.34,16.34,0,0,1,.93-2.3c2.82-4.93,5.88-9,12.62-9.18a76.14,76.14,0,0,0,19.61-2.58c23.29-6.84,45.14-16.6,63.15-33.55,6.63-6.24,6.73-6,13.63-.14,1.26,1.07,3.26,2.16,4.73,2,6.25-.89,9.73-9.9,5.24-14.24-3.25-3.14-7.73-5-11.86-7.56C410.26,437.41,410.15,402,403.95,365.72Z" />
</svg>
