<svg version="1" xmlns="http://www.w3.org/2000/svg" width="653.333" height="653.333" viewBox="0 0 490.000000 490.000000"><path d="M232 2.8c-3 1-12.9 6.1-22 11.4-9.1 5.3-18.1 10.5-20 11.5-2 1.1-9.2 5.3-16 9.3-6.9 4-14.3 8.3-16.5 9.5-2.2 1.2-8.5 4.8-14 8-8.8 5.1-31.1 18-47.5 27.4-3 1.7-6.2 3.6-7 4.1-.8.6-2.1 1.3-2.9 1.7-.8.4-7.6 4.2-15 8.6-7.5 4.4-16.2 9.4-19.5 11.1-11.9 6.3-21.3 18.6-23.2 30.3-1 5.7-1 208.8-.1 216.3.5 3.6 2.1 9.2 3.7 12.5 5 10.4 11.9 16.3 33.8 28.7 6.2 3.5 16.7 9.5 25.5 14.7 4.9 2.8 9.3 5.1 9.8 5.1s.9.4.9 1c0 .5.4 1 .9 1s26 14.5 56.8 32.3c70.4 40.8 67.8 39.4 74.3 41 7 1.9 17 1.5 23.7-.7 2.9-1 9.2-4 14-6.8 38.7-22.3 49.1-28.3 51.3-29.5 1.4-.8 3.9-2.2 5.5-3.2 4.2-2.6 15.3-9 20-11.6 2.2-1.2 12.3-7.1 22.5-13s27.5-15.9 38.5-22.3c33.2-19.1 36.8-21.4 41.4-26.1 5.6-5.7 9.9-15 10.9-23.2.4-3.5.7-53.2.6-110.4l-.1-104-2.2-6.4c-2.6-7.6-6.6-13.7-12-18.3-3-2.5-38.5-23.8-52.6-31.4-1.1-.6-16.2-9.3-33.5-19.3-17.3-10.1-40.5-23.5-51.5-29.9-11-6.3-25.2-14.5-31.5-18.2-20.5-11.9-22.4-12.6-33.6-12.8-5.2-.1-9.8.5-13.4 1.6zm22.4 94.3c3.4.7 9 2.5 12.5 4 7.6 3.4 7.6 3.4 10.4.9 3.6-3.5 10.4-5 15.5-3.5 5.3 1.6 11 5.9 12.3 9.2 1.5 3.9 1.1 9.8-1.2 16.3l-2.1 6 2.7 3.2c3.3 3.9 11.8 20.6 13.8 27.3 3.2 10.3 5.5 15.4 9.5 20.6 4.4 5.8 8.1 13.3 8.2 16.1 0 2 .2 2.1 9 1.9 5.7-.2 6.8.1 9.2 2.3 2.4 2.3 2.6 2.9 1.6 6.3-1.7 6.2-3.5 7.6-9 6.9-5.4-.7-5.7-.2-3.8 6.3 1.9 6.9 3.2 24.2 3.1 43.6 0 10.9-.3 21.3-.6 23-.2 1.6-.7 5.4-1 8.2-.6 6.1-3.2 19.4-4.5 22.9-.5 1.3-.7 2.5-.5 2.5 2 .5 2.8.7 4.8.8 1.3 0 4 1.8 6 3.8 4.4 4.3 4.8 8.4 1.4 12.4-3.7 4.4-6.1 4.5-11.1.5-2.3-2-4.9-3.6-5.7-3.6-.8 0-4.1 2.5-7.4 5.6-14.6 13.5-42.6 28.2-61.5 32.4-3 .6-6.9 1.6-8.7 2.1-1.7.5-6.3 1-10.2 1.1-6.5.1-7.3.4-10 3.2-1.6 1.7-3.9 5.3-5.1 8.1-1.2 2.7-2.7 5.3-3.3 5.7-2.1 1.3-10.2.9-12.4-.7-3.4-2.4-3.3-5 .3-12 1.9-3.6 3.4-6.9 3.4-7.5 0-.5-1.5-1.6-3.4-2.5-1.9-.9-6.2-4.6-9.7-8.2-5.4-5.6-6.6-6.4-9-5.9-1.8.3-3.2-.1-4.3-1.3-2-2.2-2-3.5-.1-6.5 1.3-2 1.4-3.1.4-7.2-.7-2.7-1.3-12.9-1.4-22.9-.3-19.4-.8-25.3-2.9-33-.8-2.8-1.7-6.9-2-9.3-1.3-9.8-5.2-17.8-19.2-38.8-3-4.5-5.4-8.6-5.4-9.2 0-.5-2-5.3-4.5-10.6s-5-11.7-5.6-14.2c-1.4-5.3-3.4-6.9-10.9-8.7-6.3-1.4-9.3-4.8-10.8-11.9-2.3-11.2 2.8-19.4 14.9-23.8 2.9-1 3.9-2.1 4.8-4.9 1.4-4.7 8.8-14.4 14.4-19.1 2.5-2 5.2-4.4 6.1-5.2.9-.9 4.4-3.4 7.8-5.4 3.5-2.1 10.6-6.7 15.8-10.2 15-10 24.6-14 42.5-17.4 4.5-.9 11.2-.8 16.9.3z"/></svg>